<svg width="20" height="20" viewBox="0 0 20 20" fill="none" xmlns="http://www.w3.org/2000/svg">
<path d="M4.81723 15.9117C4.1271 15.2216 4.58468 13.7738 4.23212 12.9261C3.87955 12.0785 2.5293 11.3358 2.5293 10.3981C2.5293 9.46047 3.86455 8.74784 4.23212 7.87017C4.59969 6.99251 4.1271 5.57474 4.81723 4.88461C5.50736 4.19448 6.95513 4.65207 7.80279 4.2995C8.65045 3.94693 9.39309 2.59668 10.3308 2.59668C11.2684 2.59668 11.9811 3.93193 12.8587 4.2995C13.7364 4.66707 15.1542 4.19448 15.8443 4.88461C16.5344 5.57474 16.0768 7.02251 16.4294 7.87017C16.782 8.71783 18.1322 9.46047 18.1322 10.3981C18.1322 11.3358 16.797 12.0485 16.4294 12.9261C16.0618 13.8038 16.5344 15.2216 15.8443 15.9117C15.1542 16.6018 13.7064 16.1442 12.8587 16.4968C12.0111 16.8494 11.2684 18.1996 10.3308 18.1996C9.39309 18.1996 8.68045 16.8644 7.80279 16.4968C6.92512 16.1292 5.50736 16.6018 4.81723 15.9117Z" fill="#FF05F5"/>
</svg>
